<svg width="287" height="287" viewBox="0 0 287 287" fill="none" xmlns="http://www.w3.org/2000/svg">
<mask id="mask0_661_7927" style="mask-type:alpha" maskUnits="userSpaceOnUse" x="0" y="0" width="287" height="287">
<rect width="287" height="287" fill="#D9D9D9"/>
</mask>
<g mask="url(#mask0_661_7927)">
<path d="M56.9908 208.68C53.8173 211.854 50.0215 213.451 45.6035 213.471C41.1648 213.471 37.3483 211.874 34.1541 208.68C30.9598 205.486 29.3731 201.68 29.3938 197.262C29.3938 192.823 30.9806 189.017 34.1541 185.843C36.249 183.748 38.6239 182.328 41.2789 181.581C43.9338 180.834 46.5991 180.782 49.2748 181.425L48.3103 185.314C46.2569 184.837 44.2346 184.868 42.2434 185.408C40.2521 185.947 38.4683 187.005 36.892 188.581C34.4859 190.987 33.3036 193.85 33.3451 197.168C33.4073 200.466 34.6519 203.329 37.0786 205.755C39.5054 208.182 42.3678 209.427 45.6658 209.489C48.9844 209.53 51.8468 208.348 54.2529 205.942C55.8292 204.366 56.8871 202.582 57.4264 200.591C57.9656 198.6 57.9968 196.577 57.5197 194.524L61.4088 193.559C62.0518 196.235 61.9999 198.9 61.2532 201.555C60.5065 204.21 59.0857 206.585 56.9908 208.68ZM70.21 194.714L48.12 172.624L55.3693 165.375C57.3605 163.384 59.528 162.357 61.8718 162.295C64.2156 162.232 66.1965 163.01 67.8143 164.628C69.847 166.661 70.5626 168.953 69.9611 171.504C73.4457 169.886 76.4844 170.374 79.0771 172.966C80.9439 174.833 81.8047 177.063 81.6595 179.656C81.5143 182.207 80.332 184.592 78.1126 186.812L70.21 194.714ZM70.49 189.207L75.6236 184.074C77.0756 182.622 77.843 181.19 77.926 179.78C78.0089 178.328 77.48 177.032 76.3392 175.891C75.2192 174.771 73.9332 174.252 72.4813 174.335C71.0293 174.377 69.5878 175.113 68.1566 176.544L62.9919 181.709L70.49 189.207ZM60.5029 179.22L64.8586 174.864C66.0202 173.703 66.6217 172.479 66.6632 171.193C66.7047 169.865 66.2172 168.694 65.2009 167.677C64.226 166.702 63.0645 166.225 61.7163 166.246C60.368 166.267 59.1235 166.848 57.9827 167.988L53.627 172.344L60.5029 179.22ZM97.3063 162.889C99.7331 160.462 100.915 157.6 100.853 154.302C100.812 150.983 99.5775 148.11 97.1507 145.683C94.7239 143.257 91.8512 142.023 88.5325 141.981C85.2345 141.919 82.3722 143.101 79.9454 145.528C77.5393 147.934 76.3571 150.796 76.3985 154.115C76.4608 157.413 77.7053 160.275 80.1321 162.702C82.5588 165.129 85.4212 166.373 88.7192 166.436C92.0379 166.477 94.9002 165.295 97.3063 162.889ZM100.044 165.627C96.8707 168.8 93.0749 170.397 88.6569 170.418C84.2182 170.418 80.4017 168.821 77.2075 165.627C74.0132 162.432 72.4265 158.626 72.4472 154.208C72.4472 149.77 74.034 145.963 77.2075 142.79C80.4017 139.596 84.2078 138.009 88.6258 138.03C93.0438 138.009 96.8499 139.596 100.044 142.79C103.238 145.984 104.836 149.801 104.836 154.239C104.836 158.637 103.238 162.432 100.044 165.627ZM136.402 137.731L131.798 133.127L115.712 149.212L120.317 153.816L117.641 156.492L110.299 149.15L110.703 148.745C111.284 148.164 111.574 147.501 111.574 146.754C111.595 145.986 111.149 144.877 110.237 143.425C109.345 141.952 107.893 140.21 105.881 138.198L94.2135 126.531L109.645 111.099L128.997 130.451L131.735 127.713L139.078 135.056L136.402 137.731ZM99.8449 126.375L109.241 135.771C112.56 139.09 114.499 141.963 115.059 144.389L126.104 133.344L109.49 116.73L99.8449 126.375ZM92.4281 234.721L70.1826 235.935L80.6986 246.451L77.8363 249.313L55.7463 227.223L58.6086 224.361L68.1913 233.944L68.2536 214.716L72.0182 210.951V231.983L96.5039 230.646L92.4281 234.721ZM104.264 218.156C106.691 215.73 107.873 212.867 107.811 209.569C107.769 206.251 106.535 203.378 104.109 200.951C101.682 198.524 98.809 197.29 95.4903 197.249C92.1924 197.186 89.33 198.369 86.9032 200.795C84.4972 203.201 83.3149 206.064 83.3564 209.383C83.4186 212.68 84.6631 215.543 87.0899 217.97C89.5167 220.396 92.379 221.641 95.677 221.703C98.9957 221.745 101.858 220.562 104.264 218.156ZM107.002 220.894C103.829 224.068 100.033 225.665 95.6148 225.686C91.176 225.686 87.3595 224.088 84.1653 220.894C80.971 217.7 79.3843 213.894 79.405 209.476C79.405 205.037 80.9918 201.231 84.1653 198.058C87.3595 194.863 91.1656 193.277 95.5836 193.297C100.002 193.277 103.808 194.863 107.002 198.058C110.196 201.252 111.793 205.068 111.793 209.507C111.793 213.904 110.196 217.7 107.002 220.894ZM116.885 197.571L101.142 181.828L116.574 166.396L138.664 188.486L135.801 191.348L116.449 171.996L106.773 181.672L120.214 195.113C122.412 197.312 123.574 199.344 123.698 201.211C123.823 203.078 123.149 204.748 121.676 206.22C120.95 206.946 120.328 207.485 119.809 207.838L117.165 205.194C117.497 204.986 117.994 204.551 118.658 203.887C119.467 203.078 119.757 202.207 119.529 201.273C119.301 200.34 118.42 199.106 116.885 197.571ZM139.551 174.905L123.808 159.162L139.24 143.73L161.33 165.82L158.467 168.682L139.115 149.33L129.439 159.006L142.88 172.447C145.078 174.646 146.24 176.678 146.364 178.545C146.489 180.412 145.815 182.081 144.342 183.554C143.616 184.28 142.994 184.819 142.475 185.172L139.831 182.527C140.163 182.32 140.66 181.884 141.324 181.221C142.133 180.412 142.423 179.541 142.195 178.607C141.967 177.674 141.086 176.44 139.551 174.905ZM167.164 159.986L145.074 137.896L157.954 125.015L160.692 127.753L150.705 137.74L157.394 144.429L165.515 136.309L168.253 139.047L160.132 147.167L167.319 154.354L177.306 144.367L180.044 147.105L167.164 159.986ZM199.074 128.075L176.829 129.289L187.345 139.805L184.482 142.667L162.392 120.577L165.255 117.715L174.837 127.298L174.9 108.07L178.664 104.305V125.337L203.15 124L199.074 128.075ZM209.836 117.314L190.484 97.9614L183.608 104.837L180.87 102.099L197.453 85.5163L200.191 88.2543L193.315 95.1302L212.667 114.482L209.836 117.314ZM225.529 101.621L223.009 104.141L200.919 82.0509L203.812 79.1574L220.986 96.3316L217.253 65.7167L219.742 63.2277L241.832 85.3177L238.969 88.1801L221.764 70.9748L225.529 101.621ZM247.71 79.4392L225.62 57.3491L232.87 50.0999C234.861 48.1087 237.028 47.0819 239.372 47.0197C241.716 46.9575 243.697 47.7353 245.315 49.3532C247.347 51.3859 248.063 53.6778 247.461 56.2291C250.946 54.6112 253.985 55.0986 256.578 57.6914C258.444 59.5581 259.305 61.7879 259.16 64.3806C259.015 66.9318 257.832 69.3172 255.613 71.5365L247.71 79.4392ZM247.99 73.9322L253.124 68.7986C254.576 67.3467 255.343 65.9155 255.426 64.5051C255.509 63.0531 254.98 61.7568 253.84 60.616C252.72 59.4959 251.434 58.9774 249.982 59.0603C248.53 59.1018 247.088 59.8382 245.657 61.2693L240.492 66.434L247.99 73.9322ZM238.003 63.945L242.359 59.5892C243.521 58.4277 244.122 57.2039 244.164 55.9179C244.205 54.5905 243.718 53.4186 242.701 52.4022C241.726 51.4274 240.565 50.9503 239.217 50.971C237.868 50.9918 236.624 51.5725 235.483 52.7133L231.127 57.0691L238.003 63.945Z" fill="black"/>
</g>
</svg>
