<svg width="185" height="145" viewBox="0 0 185 145" fill="none" xmlns="http://www.w3.org/2000/svg">
<path d="M138.216 140.21C136.76 140.21 135.535 139.678 134.541 138.614C133.561 137.55 133.071 136.262 133.071 134.75C133.071 133.238 133.561 131.95 134.541 130.886C135.535 129.822 136.76 129.29 138.216 129.29C138.986 129.29 139.7 129.465 140.358 129.815C141.03 130.151 141.548 130.585 141.912 131.117V129.5H143.718V140H141.912V138.383C141.548 138.915 141.03 139.356 140.358 139.706C139.7 140.042 138.986 140.21 138.216 140.21ZM138.489 138.551C139.525 138.551 140.379 138.187 141.051 137.459C141.723 136.731 142.059 135.828 142.059 134.75C142.059 133.672 141.723 132.769 141.051 132.041C140.379 131.313 139.525 130.949 138.489 130.949C137.439 130.949 136.578 131.313 135.906 132.041C135.234 132.769 134.898 133.672 134.898 134.75C134.898 135.828 135.234 136.731 135.906 137.459C136.578 138.187 137.439 138.551 138.489 138.551Z" fill="black"/>
<path d="M130.487 140L125.258 135.317V140H123.452V129.5H125.258V134.162L129.92 129.5H132.209L127.064 134.645L132.986 140H130.487Z" fill="black"/>
<path d="M121.628 129.5L115.937 141.869C115.503 142.835 115.013 143.528 114.467 143.948C113.935 144.382 113.263 144.599 112.451 144.599C111.933 144.599 111.541 144.564 111.275 144.494V142.898C111.485 142.94 111.828 142.961 112.304 142.961C113.088 142.961 113.718 142.429 114.194 141.365L115.055 139.517L110.414 129.5H112.409L116.042 137.417L119.612 129.5H121.628Z" fill="black"/>
<path d="M100.688 140V129.5H105.266C106.428 129.5 107.317 129.759 107.933 130.277C108.549 130.795 108.857 131.488 108.857 132.356C108.857 133.182 108.514 133.861 107.828 134.393C108.976 134.953 109.55 135.807 109.55 136.955C109.55 137.837 109.235 138.565 108.605 139.139C107.975 139.713 107.03 140 105.77 140H100.688ZM102.494 138.425H105.875C106.435 138.425 106.876 138.285 107.198 138.005C107.534 137.725 107.702 137.34 107.702 136.85C107.702 136.36 107.534 135.982 107.198 135.716C106.876 135.436 106.435 135.296 105.875 135.296H102.494V138.425ZM102.494 133.847H105.413C106.491 133.847 107.03 133.378 107.03 132.44C107.03 131.95 106.876 131.6 106.568 131.39C106.26 131.166 105.875 131.054 105.413 131.054H102.494V133.847Z" fill="black"/>
<path d="M93.851 140.21C91.989 140.21 90.561 139.496 89.567 138.068L90.911 137.165C91.625 138.159 92.584 138.656 93.788 138.656C95.384 138.656 96.182 138.082 96.182 136.934C96.182 135.828 95.433 135.275 93.935 135.275H92.36V133.805H93.914C95.202 133.805 95.846 133.308 95.846 132.314C95.846 131.824 95.664 131.453 95.3 131.201C94.95 130.935 94.453 130.802 93.809 130.802C92.745 130.802 91.877 131.229 91.205 132.083L89.924 131.159C90.876 129.913 92.199 129.29 93.893 129.29C95.069 129.29 95.979 129.57 96.623 130.13C97.267 130.676 97.589 131.369 97.589 132.209C97.589 133.217 97.155 133.973 96.287 134.477C97.435 134.995 98.009 135.863 98.009 137.081C98.009 137.977 97.645 138.726 96.917 139.328C96.189 139.916 95.167 140.21 93.851 140.21Z" fill="black"/>
<path d="M175.5 121L179.742 116.884C178.916 116.688 178.279 116.324 177.831 115.792C177.383 115.246 177.159 114.595 177.159 113.839C177.159 112.873 177.488 112.075 178.146 111.445C178.818 110.815 179.763 110.5 180.981 110.5H184.866V121H183.06V117.178H181.716L177.768 121H175.5ZM181.086 115.561H183.06V112.117H181.086C179.672 112.117 178.965 112.698 178.965 113.86C178.965 114.406 179.147 114.826 179.511 115.12C179.889 115.414 180.414 115.561 181.086 115.561Z" fill="black"/>
<path d="M166.146 121H164.529V110.5H166.335V118.207L172.257 110.5H173.853V121H172.068V113.293L166.146 121Z" fill="black"/>
<path d="M151.773 121V110.5H153.579V114.826H159.312V110.5H161.118V121H159.312V116.464H153.579V121H151.773Z" fill="black"/>
<path d="M142.872 121.21C141.416 121.21 140.191 120.678 139.197 119.614C138.217 118.55 137.727 117.262 137.727 115.75C137.727 114.238 138.217 112.95 139.197 111.886C140.191 110.822 141.416 110.29 142.872 110.29C143.642 110.29 144.356 110.465 145.014 110.815C145.686 111.151 146.204 111.585 146.568 112.117V110.5H148.374V121H146.568V119.383C146.204 119.915 145.686 120.356 145.014 120.706C144.356 121.042 143.642 121.21 142.872 121.21ZM143.145 119.551C144.181 119.551 145.035 119.187 145.707 118.459C146.379 117.731 146.715 116.828 146.715 115.75C146.715 114.672 146.379 113.769 145.707 113.041C145.035 112.313 144.181 111.949 143.145 111.949C142.095 111.949 141.234 112.313 140.562 113.041C139.89 113.769 139.554 114.672 139.554 115.75C139.554 116.828 139.89 117.731 140.562 118.459C141.234 119.187 142.095 119.551 143.145 119.551Z" fill="black"/>
<path d="M125.79 121V110.5H127.596V114.826H133.329V110.5H135.135V121H133.329V116.464H127.596V121H125.79Z" fill="black"/>
<path d="M118.953 121.21C117.091 121.21 115.663 120.496 114.669 119.068L116.013 118.165C116.727 119.159 117.686 119.656 118.89 119.656C120.486 119.656 121.284 119.082 121.284 117.934C121.284 116.828 120.535 116.275 119.037 116.275H117.462V114.805H119.016C120.304 114.805 120.948 114.308 120.948 113.314C120.948 112.824 120.766 112.453 120.402 112.201C120.052 111.935 119.555 111.802 118.911 111.802C117.847 111.802 116.979 112.229 116.307 113.083L115.026 112.159C115.978 110.913 117.301 110.29 118.995 110.29C120.171 110.29 121.081 110.57 121.725 111.13C122.369 111.676 122.691 112.369 122.691 113.209C122.691 114.217 122.257 114.973 121.389 115.477C122.537 115.995 123.111 116.863 123.111 118.081C123.111 118.977 122.747 119.726 122.019 120.328C121.291 120.916 120.269 121.21 118.953 121.21Z" fill="black"/>
<path d="M107.873 121.21C106.291 121.21 104.975 120.685 103.925 119.635C102.889 118.571 102.371 117.276 102.371 115.75C102.371 114.224 102.889 112.936 103.925 111.886C104.975 110.822 106.291 110.29 107.873 110.29C109.441 110.29 110.743 110.822 111.779 111.886C112.829 112.936 113.354 114.224 113.354 115.75C113.354 117.276 112.829 118.571 111.779 119.635C110.743 120.685 109.441 121.21 107.873 121.21ZM105.227 118.438C105.913 119.166 106.795 119.53 107.873 119.53C108.951 119.53 109.826 119.166 110.498 118.438C111.17 117.71 111.506 116.814 111.506 115.75C111.506 114.686 111.17 113.79 110.498 113.062C109.826 112.334 108.951 111.97 107.873 111.97C106.795 111.97 105.913 112.334 105.227 113.062C104.555 113.79 104.219 114.686 104.219 115.75C104.219 116.814 104.555 117.71 105.227 118.438Z" fill="black"/>
<path d="M90.701 121V110.5H99.815V121H98.009V112.159H92.507V121H90.701Z" fill="black"/>
<path d="M139.675 106.389H137.869V91.5H139.675V93.117C140.039 92.585 140.55 92.151 141.208 91.815C141.88 91.465 142.601 91.29 143.371 91.29C144.827 91.29 146.045 91.822 147.025 92.886C148.019 93.95 148.516 95.238 148.516 96.75C148.516 98.262 148.019 99.55 147.025 100.614C146.045 101.678 144.827 102.21 143.371 102.21C142.601 102.21 141.88 102.042 141.208 101.706C140.55 101.356 140.039 100.915 139.675 100.383V106.389ZM140.536 99.459C141.208 100.187 142.062 100.551 143.098 100.551C144.134 100.551 144.988 100.187 145.66 99.459C146.332 98.731 146.668 97.828 146.668 96.75C146.668 95.672 146.332 94.769 145.66 94.041C144.988 93.313 144.134 92.949 143.098 92.949C142.062 92.949 141.208 93.313 140.536 94.041C139.864 94.769 139.528 95.672 139.528 96.75C139.528 97.828 139.864 98.731 140.536 99.459Z" fill="black"/>
<path d="M130.512 102V93.159H127.173V91.5H135.804V93.159H132.318V102H130.512Z" fill="black"/>
<path d="M115.762 102V91.5H117.568V95.826H123.301V91.5H125.107V102H123.301V97.464H117.568V102H115.762Z" fill="black"/>
<path d="M108.179 102.21C106.569 102.21 105.26 101.692 104.252 100.656C103.244 99.62 102.74 98.318 102.74 96.75C102.74 95.196 103.251 93.901 104.273 92.865C105.295 91.815 106.604 91.29 108.2 91.29C109.614 91.29 110.797 91.766 111.749 92.718C112.715 93.656 113.198 94.937 113.198 96.561C113.198 96.771 113.191 96.953 113.177 97.107H104.567C104.595 98.087 104.945 98.906 105.617 99.564C106.303 100.222 107.164 100.551 108.2 100.551C109.67 100.551 110.762 99.942 111.476 98.724L112.904 99.711C111.882 101.377 110.307 102.21 108.179 102.21ZM104.693 95.637H111.35C111.21 94.797 110.839 94.132 110.237 93.642C109.649 93.138 108.949 92.886 108.137 92.886C107.311 92.886 106.569 93.138 105.911 93.642C105.267 94.132 104.861 94.797 104.693 95.637Z" fill="black"/>
<path d="M101.348 100.341V104.646H99.647V102H90.701V91.5H92.507V100.341H97.925V91.5H99.731V100.341H101.348Z" fill="black"/>
<circle cx="70" cy="70" r="14" fill="white"/>
<path d="M114.625 54.7374L110.335 50.4467L94.7662 66.0151L99.057 70.3058L96.9696 72.3932L90.5915 66.0151L90.9974 65.6092C91.5385 65.068 91.7994 64.4399 91.7801 63.7247C91.7801 62.9903 91.3259 61.9176 90.4175 60.5067C89.5091 59.0571 88.0692 57.3466 86.0978 55.3752L75.1681 44.4455L89.3159 30.2977L107.812 48.7942L110.335 46.2719L116.713 52.65L114.625 54.7374ZM79.4588 44.3295L88.736 53.6067C92.1763 57.0471 94.0994 59.8785 94.5053 62.1012L105.609 50.9975L89.1999 34.5884L79.4588 44.3295Z" fill="black"/>
<path d="M69.9358 82.438C73.2022 82.4574 76.024 81.2784 78.4013 78.9011C80.7786 76.5238 81.9479 73.7116 81.9092 70.4646C81.8899 67.1982 80.6723 64.3571 78.2563 61.9411C75.8597 59.5445 73.0282 58.3365 69.7619 58.3172C66.4955 58.2592 63.6737 59.4189 61.2964 61.7962C58.9191 64.1735 57.7498 67.005 57.7884 70.2907C57.8271 73.5377 59.0447 76.3595 61.4413 78.7561C63.8573 81.1721 66.6888 82.3994 69.9358 82.438ZM84.9533 70.3776C84.9533 74.4751 83.4651 78.012 80.4887 80.9885C77.5122 83.9649 73.9656 85.4628 69.8488 85.4821C65.7514 85.4821 62.2048 83.9842 59.209 80.9885C56.2132 77.9927 54.7153 74.4461 54.7153 70.3486C54.7347 66.2319 56.2325 62.6852 59.209 59.7088C62.1854 56.7323 65.7224 55.2441 69.8198 55.2441C73.9366 55.2248 77.4929 56.713 80.4887 59.7088C83.4844 62.7046 84.9727 66.2608 84.9533 70.3776Z" fill="black"/>
<path d="M52.7749 108.007L32.191 87.4229L38.6851 80.9288C40.5792 79.0347 42.5893 78.049 44.7153 77.9717C46.8413 77.8944 48.6388 78.5901 50.1077 80.059C52.1178 82.0691 52.7942 84.3111 52.1371 86.785C55.4421 85.1422 58.3219 85.5481 60.7765 88.0027C62.5353 89.7615 63.3278 91.8489 63.1538 94.2648C62.9992 96.6614 61.8589 98.9228 59.7328 101.049L52.7749 108.007ZM52.9779 103.803L57.9644 98.8165C59.4719 97.3089 60.274 95.811 60.3707 94.3228C60.4673 92.8346 59.9358 91.5106 58.7761 90.351C57.6165 89.1913 56.2925 88.6598 54.8043 88.7565C53.3161 88.8144 51.8182 89.5972 50.3107 91.1048L45.2951 96.1203L52.9779 103.803ZM43.3817 94.2068L47.8174 89.7712C49.0157 88.5728 49.6342 87.3166 49.6728 86.0023C49.6922 84.6687 49.1897 83.4897 48.1653 82.4653C47.1989 81.4989 46.0296 81.0254 44.6573 81.0447C43.2851 81.0254 42.0095 81.6052 40.8305 82.7842L36.3948 87.2199L43.3817 94.2068Z" fill="black"/>
<path d="M40.3707 121.107C37.3942 124.083 33.8476 125.581 29.7308 125.6C25.6334 125.6 22.0868 124.102 19.091 121.107C16.0952 118.111 14.5973 114.564 14.5973 110.467C14.6167 106.35 16.1146 102.803 19.091 99.827C20.9658 97.9522 23.1208 96.6669 25.5561 95.9711C27.972 95.256 30.4073 95.1593 32.8619 95.6812L32.1951 98.6673C30.243 98.2228 28.3006 98.2711 26.3678 98.8123C24.4351 99.3534 22.7053 100.387 21.1784 101.914C18.8011 104.292 17.6318 107.123 17.6704 110.409C17.7091 113.656 18.9267 116.478 21.3233 118.874C23.7393 121.29 26.5708 122.518 29.8178 122.556C33.0842 122.576 35.906 121.397 38.2833 119.019C39.8102 117.492 40.8442 115.763 41.3854 113.83C41.9265 111.897 41.9749 109.955 41.5303 108.003L44.5164 107.336C45.0383 109.79 44.9513 112.235 44.2555 114.671C43.5404 117.086 42.2455 119.232 40.3707 121.107Z" fill="black"/>
<path d="M70.4194 57.9744V12.2227" stroke="black" stroke-width="2.8" stroke-miterlimit="10"/>
<path d="M70.4193 14.9172L65.0136 18.2063L64.8914 18.0229L68.3915 9.21146C69.0693 6.13912 69.7415 3.07234 70.4193 0C71.0971 3.07234 71.7694 6.13912 72.4472 9.21146L75.9473 18.0229L75.8529 18.2063L70.4193 14.9172Z" fill="black"/>
<path d="M82.6087 71.0576H128.116" stroke="black" stroke-width="2.8" stroke-miterlimit="10"/>
<path d="M125.422 71.0583L122.133 65.6525L122.316 65.5303L131.127 69.0304C134.2 69.7082 137.266 70.3805 140.339 71.0583C137.266 71.7361 134.2 72.4083 131.127 73.0861L122.316 76.5863L122.133 76.4918L125.422 71.0583Z" fill="black"/>
<path d="M57.73 71.0576H12.2227" stroke="black" stroke-width="2.8" stroke-miterlimit="10"/>
<path d="M14.9172 71.0583L18.2063 76.464L18.0229 76.5863L9.21146 73.0861C6.13912 72.4083 3.07234 71.7361 0 71.0583C3.07234 70.3805 6.13912 69.7082 9.21146 69.0304L18.0229 65.5303L18.2063 65.6247L14.9172 71.0583Z" fill="black"/>
<path d="M70.4194 83.0137V136.177" stroke="black" stroke-width="2.8" stroke-miterlimit="10"/>
<path d="M65.3414 135.922C65.3414 138.727 67.6137 141 70.4193 141C73.225 141 75.4973 138.727 75.4973 135.922C75.4973 133.116 73.225 130.844 70.4193 130.844C67.6137 130.844 65.3414 133.116 65.3414 135.922Z" fill="black"/>
</svg>
