<svg width="40" height="40" viewBox="0 0 40 40" fill="none" xmlns="http://www.w3.org/2000/svg">
<mask id="mask0_804_316" style="mask-type:alpha" maskUnits="userSpaceOnUse" x="0" y="0" width="40" height="40">
<rect width="40" height="40" fill="#D9D9D9"/>
</mask>
<g mask="url(#mask0_804_316)">
<mask id="path-2-inside-1_804_316" fill="white">
<path d="M20 0C31.0457 0 40 9.31694 40 20.8096H987V784.81H-955V20.8096H0C0 9.31694 8.95431 0 20 0Z"/>
</mask>
<path d="M20 0C31.0457 0 40 9.31694 40 20.8096H987V784.81H-955V20.8096H0C0 9.31694 8.95431 0 20 0Z" fill="#0C9648"/>
<path d="M40 20.8096H37.3V23.5096H40V20.8096ZM987 20.8096H989.7V18.1096H987V20.8096ZM987 784.81V787.51H989.7V784.81H987ZM-955 784.81H-957.7V787.51H-955V784.81ZM-955 20.8096V18.1096H-957.7V20.8096H-955ZM0 20.8096V23.5096H2.7V20.8096H0ZM20 0V2.7C29.4545 2.7 37.3 10.7061 37.3 20.8096H40H42.7C42.7 7.92777 32.6369 -2.7 20 -2.7V0ZM40 20.8096V23.5096H987V20.8096V18.1096H40V20.8096ZM987 20.8096H984.3V784.81H987H989.7V20.8096H987ZM987 784.81V782.11H-955V784.81V787.51H987V784.81ZM-955 784.81H-952.3V20.8096H-955H-957.7V784.81H-955ZM-955 20.8096V23.5096H0V20.8096V18.1096H-955V20.8096ZM0 20.8096H2.7C2.7 10.7061 10.5455 2.7 20 2.7V0V-2.7C7.36315 -2.7 -2.7 7.92777 -2.7 20.8096H0Z" fill="black" mask="url(#path-2-inside-1_804_316)"/>
</g>
<path d="M28.6202 23.79L19.7652 14.935L10.9102 23.79L10.9102 19.975L19.7652 11.12L28.6202 19.975L28.6202 23.79Z" fill="black"/>
</svg>
